<?xml version="1.0" encoding="utf-8"?>
<!-- Generator: Adobe Illustrator 16.0.0, SVG Export Plug-In . SVG Version: 6.00 Build 0)  -->
<!DOCTYPE svg PUBLIC "-//W3C//DTD SVG 1.1//EN" "http://www.w3.org/Graphics/SVG/1.1/DTD/svg11.dtd">
<svg version="1.1" id="Layer_1" xmlns="http://www.w3.org/2000/svg" xmlns:xlink="http://www.w3.org/1999/xlink" x="0px" y="0px"
	 width="262px" height="24px" viewBox="0 0 262 24" enable-background="new 0 0 262 24" xml:space="preserve">
<g>
	<path d="M176.877,14.667c-0.234-0.661-0.592-1.295-1.061-1.884c-0.465-0.588-1.075-1.137-1.817-1.632
		c-0.732-0.49-1.769-1.022-3.078-1.586c-1.306-0.563-2.239-1.088-2.776-1.559c-0.531-0.463-0.799-1.004-0.799-1.607
		c0-0.694,0.307-1.271,0.913-1.716c0.617-0.447,1.428-0.673,2.41-0.673c0.909,0,1.608,0.152,2.08,0.453
		c0.481,0.301,1.026,0.768,1.622,1.385l0.033,0.036l2.344-1.887l-0.032-0.042c-0.767-0.992-1.736-1.74-2.884-2.225
		C172.683,1.246,171.535,1,170.42,1c-1.685,0-3.139,0.527-4.323,1.567c-1.184,1.04-1.784,2.319-1.784,3.802
		c0,0.637,0.104,1.207,0.318,1.744c0.203,0.533,0.539,1.083,1,1.636c0.451,0.544,0.994,1.019,1.615,1.411
		c0.617,0.393,1.512,0.831,2.657,1.3c1.141,0.471,1.979,0.892,2.493,1.25c0.523,0.361,0.961,0.824,1.305,1.375
		c0.346,0.551,0.521,1.106,0.521,1.651c0,0.913-0.333,1.678-0.991,2.274c-0.662,0.599-1.504,0.903-2.5,0.903
		c-2.064,0-3.623-1.156-4.633-3.436l-0.018-0.043l-2.891,0.82l0.021,0.055c0.701,1.88,1.726,3.312,3.045,4.256
		c1.313,0.942,2.852,1.421,4.57,1.421c1.761,0,3.284-0.612,4.529-1.818c1.239-1.211,1.866-2.693,1.866-4.406
		C177.221,16.031,177.105,15.325,176.877,14.667"/>
	<path d="M219.65,4.215C217.494,2.082,214.887,1,211.9,1c-3.055,0-5.707,1.073-7.886,3.19c-2.181,2.118-3.286,4.694-3.286,7.659
		c0,3.069,1.09,5.723,3.237,7.886c2.144,2.158,4.78,3.253,7.839,3.253c3.1,0,5.753-1.086,7.885-3.229
		c2.13-2.145,3.21-4.806,3.21-7.91C222.899,8.916,221.807,6.348,219.65,4.215 M219.887,11.978c0,2.155-0.785,4.042-2.335,5.606
		c-1.546,1.565-3.409,2.359-5.539,2.359c-2.315,0-4.302-0.777-5.903-2.312c-1.6-1.534-2.368-3.437-2.368-5.654
		c0-2.182,0.749-4.082,2.307-5.645c1.553-1.56,3.449-2.351,5.636-2.351c2.295,0,4.257,0.777,5.832,2.31
		C219.088,7.826,219.887,9.739,219.887,11.978"/>
	<polygon points="254.514,19.959 254.514,1.001 251.485,1.001 251.485,22.987 261.654,22.987 261.654,19.959 	"/>
	<rect x="71.254" y="1" width="3.078" height="21.988"/>
	<path d="M118.842,1h-5.325v21.988h5.36c4.06,0,7.149-1.11,9.275-3.332c2.128-2.221,3.19-4.774,3.19-7.662
		c0-2.866-1.027-5.412-3.087-7.646C126.199,2.118,123.062,1,118.842,1 M127.344,15.695c-0.596,1.121-1.404,2.022-2.417,2.702
		c-1.011,0.679-2.077,1.117-3.204,1.319s-2.805,0.302-5.031,0.302h-0.175V3.935h1.517c2.242,0,4.026,0.237,5.355,0.708
		c1.327,0.472,2.467,1.393,3.422,2.761c0.952,1.368,1.428,2.899,1.428,4.59C128.238,13.341,127.94,14.576,127.344,15.695"/>
	<polygon points="136.318,23 148.48,23 148.48,20.029 139.282,20.029 139.282,12.467 148.48,12.467 148.523,9.497 139.326,9.497 
		139.282,4.006 148.48,4.006 148.48,1 136.318,1 	"/>
	<polygon points="182.902,23 195.063,23 195.063,20.029 185.865,20.029 185.865,12.467 195.063,12.467 195.107,9.497 185.908,9.497 
		185.865,4.006 195.063,4.006 195.063,1 182.902,1 	"/>
	<path d="M30.95,1c-2.527,0-4.574,0.804-6.086,2.388c-1.517,1.57-2.286,3.929-2.286,7.006v12.594h3.022v-8.035h10.521v8.035h3.021
		V9.608c0-2.608-0.752-4.715-2.243-6.256C35.423,1.792,33.421,1,30.95,1 M25.601,9.912c0-1.898,0.459-3.3,1.369-4.337
		c0.925-1.049,2.196-1.561,3.882-1.561c1.658,0,2.962,0.485,3.881,1.438c0.922,0.952,1.39,2.227,1.39,3.962v2.514H25.601V9.912z"/>
	<path d="M12.684,14.077c0,1.907-0.461,3.397-1.373,4.425c-0.91,1.036-2.212,1.56-3.872,1.56c-1.659,0-2.965-0.481-3.879-1.433
		c-0.385-0.396-0.691-0.891-0.941-1.518l-0.039-0.094l-2.198,2.206l-0.035,0.038l0.024,0.047c0.292,0.492,0.633,0.94,1.008,1.327
		c1.49,1.562,3.494,2.353,5.95,2.353c2.521,0,4.571-0.801,6.088-2.38c1.517-1.578,2.289-3.938,2.289-7.009V1h-3.021V14.077z"/>
	<path d="M90.611,1c-2.521,0-4.565,0.803-6.083,2.381c-1.525,1.577-2.296,3.936-2.296,7.012v12.595h3.031V9.911
		c0-1.908,0.459-3.309,1.365-4.338c0.904-1.034,2.211-1.559,3.884-1.559c1.655,0,2.956,0.481,3.873,1.432
		c0.918,0.949,1.385,2.224,1.385,3.964v13.578h3.025V9.608c0-2.6-0.749-4.707-2.237-6.264C95.075,1.789,93.073,1,90.611,1"/>
	<path d="M236.919,22.988c2.521,0,4.565-0.803,6.083-2.381c1.525-1.576,2.296-3.937,2.296-7.013V1h-3.031v13.078
		c0,1.907-0.459,3.309-1.365,4.338c-0.904,1.033-2.211,1.558-3.884,1.558c-1.655,0-2.956-0.48-3.873-1.432
		c-0.918-0.949-1.385-2.224-1.385-3.964V1h-3.025V14.38c0,2.6,0.749,4.706,2.237,6.265
		C232.455,22.199,234.457,22.988,236.919,22.988"/>
	<path d="M61.184,1l-6.484,17.03c-0.168,0.305-0.415,0.291-0.415,0.291c-0.001,0-0.248,0.014-0.415-0.291L47.385,1h-3.209
		l7.573,20.208c0.385,1.025,1.342,1.742,2.437,1.777c0.033,0.001,0.065,0.002,0.099,0.002s0.065-0.001,0.099-0.002
		c1.095-0.035,2.052-0.752,2.437-1.777L64.392,1H61.184z"/>
</g>
</svg>
