<?xml version="1.0" encoding="utf-8"?>
<!-- Generator: Adobe Illustrator 16.0.0, SVG Export Plug-In . SVG Version: 6.00 Build 0)  -->
<!DOCTYPE svg PUBLIC "-//W3C//DTD SVG 1.1//EN" "http://www.w3.org/Graphics/SVG/1.1/DTD/svg11.dtd">
<svg version="1.1" id="Layer_1" xmlns="http://www.w3.org/2000/svg" xmlns:xlink="http://www.w3.org/1999/xlink" x="0px" y="0px"
	 width="160px" height="57px" viewBox="0 0 160 57" enable-background="new 0 0 160 57" xml:space="preserve">
<g>
	<path fill="none" stroke="#000000" stroke-width="0.5" stroke-miterlimit="10" d="M1,10.351c4.12,7.121,9.281,13.798,15.479,19.811
		c36.154,35.071,93.893,34.192,128.963-1.963c5.359-5.525,9.875-11.556,13.559-17.933"/>
	<path d="M106.335,34.004c-0.243-0.295-0.542-0.553-0.891-0.768c-0.345-0.216-0.759-0.383-1.229-0.5
		c-0.465-0.114-1.093-0.197-1.866-0.244c-0.772-0.047-1.347-0.143-1.708-0.284c-0.356-0.14-0.592-0.366-0.704-0.674
		c-0.128-0.355-0.077-0.708,0.151-1.046c0.233-0.342,0.605-0.607,1.107-0.789c0.464-0.167,0.851-0.219,1.147-0.152
		c0.302,0.065,0.666,0.203,1.084,0.41l0.024,0.011l0.851-1.396l-0.024-0.016c-0.575-0.365-1.209-0.569-1.885-0.606
		c-0.677-0.035-1.31,0.051-1.879,0.257c-0.861,0.31-1.508,0.847-1.922,1.598c-0.413,0.75-0.484,1.515-0.212,2.273
		c0.118,0.325,0.276,0.598,0.485,0.833c0.202,0.233,0.475,0.453,0.813,0.651c0.33,0.194,0.695,0.338,1.085,0.424
		c0.388,0.087,0.927,0.146,1.599,0.175c0.67,0.03,1.177,0.091,1.505,0.18c0.333,0.088,0.644,0.244,0.92,0.462
		c0.279,0.218,0.471,0.471,0.57,0.749c0.169,0.467,0.14,0.919-0.087,1.346c-0.228,0.429-0.603,0.739-1.112,0.922
		c-1.056,0.381-2.065,0.077-3.001-0.902l-0.018-0.018l-1.325,0.951l0.02,0.024c0.705,0.832,1.492,1.375,2.341,1.614
		c0.847,0.24,1.72,0.2,2.598-0.115c0.901-0.325,1.568-0.919,1.981-1.766c0.41-0.847,0.459-1.721,0.143-2.596
		C106.762,34.638,106.574,34.298,106.335,34.004"/>
	<path d="M124.269,16.895c-1.633-0.221-3.117,0.161-4.416,1.138c-1.325,0.998-2.127,2.33-2.381,3.961
		c-0.254,1.633,0.107,3.112,1.076,4.4c1.003,1.333,2.343,2.13,3.981,2.367c1.637,0.237,3.141-0.15,4.469-1.149
		c1.346-1.013,2.143-2.352,2.369-3.979c0.224-1.627-0.177-3.134-1.191-4.482C127.217,17.875,125.903,17.116,124.269,16.895
		 M126.909,20.189c0.704,0.936,0.979,2.012,0.819,3.197c-0.16,1.184-0.709,2.139-1.635,2.835c-1.006,0.756-2.121,1.067-3.319,0.926
		c-1.195-0.145-2.15-0.719-2.876-1.682c-0.713-0.948-1.009-2.018-0.844-3.206c0.166-1.185,0.73-2.147,1.68-2.863
		c0.997-0.749,2.103-1.053,3.288-0.902C125.206,18.647,126.177,19.216,126.909,20.189"/>
	<polygon points="144.253,6.553 135.513,1.1 134.641,2.497 144.779,8.821 147.704,4.131 146.307,3.26 	"/>
	<rect x="43.379" y="22.603" transform="matrix(-0.8728 -0.4881 0.4881 -0.8728 68.8584 75.1019)" width="1.673" height="11.951"/>
	<path d="M71.972,31.124l-2.883-0.257L68.028,42.77l2.902,0.26c2.197,0.196,3.925-0.257,5.182-1.356
		c1.26-1.1,1.958-2.431,2.098-3.994c0.138-1.551-0.296-2.979-1.303-4.287C75.901,32.085,74.256,31.328,71.972,31.124 M75.866,39.49
		c-0.377,0.578-0.857,1.026-1.439,1.346c-0.579,0.318-1.179,0.505-1.798,0.56s-1.533,0.028-2.738-0.08l-0.094-0.008l0.775-8.707
		l0.821,0.073c1.213,0.108,2.168,0.322,2.864,0.642c0.696,0.32,1.269,0.873,1.719,1.66c0.449,0.787,0.634,1.638,0.552,2.554
		C76.463,38.259,76.243,38.912,75.866,39.49"/>
	<polygon points="81.888,43.609 88.479,43.114 88.358,41.505 83.373,41.878 83.065,37.78 88.051,37.405 87.953,35.794 
		82.968,36.168 82.722,33.194 87.707,32.82 87.584,31.19 80.993,31.686 	"/>
	<polygon points="112.112,36.509 118.022,33.551 117.301,32.106 112.83,34.343 110.991,30.668 115.462,28.43 114.76,26.976 
		110.29,29.214 108.933,26.556 113.404,24.318 112.672,22.858 106.761,25.815 	"/>
	<path d="M30.73,10.52c-0.934-1.007-2.011-1.527-3.2-1.544c-1.187-0.023-2.41,0.542-3.637,1.678l-5.02,4.654l1.116,1.203
		l3.202-2.969l3.888,4.194l-3.202,2.97l1.116,1.203l5.333-4.943c1.04-0.964,1.602-2.042,1.665-3.207
		C32.068,12.595,31.643,11.504,30.73,10.52 M25.202,11.68c0.756-0.702,1.484-1.037,2.234-1.056c0.76-0.02,1.434,0.298,2.056,0.971
		c0.613,0.66,0.901,1.359,0.861,2.077c-0.039,0.719-0.373,1.376-1.065,2.018l-1.002,0.929l-3.889-4.193L25.202,11.68z"/>
	<path d="M18.751,7.22c-0.856,0.584-1.667,0.833-2.406,0.739c-0.744-0.091-1.379-0.515-1.887-1.261
		c-0.509-0.744-0.694-1.478-0.547-2.179c0.061-0.295,0.188-0.585,0.394-0.888l0.03-0.047L12.67,3.274L12.644,3.27l-0.015,0.026
		c-0.131,0.282-0.227,0.573-0.287,0.859c-0.244,1.146,0.016,2.289,0.768,3.391c0.772,1.132,1.761,1.807,2.934,2.003
		c1.174,0.197,2.47-0.179,3.848-1.12l5.655-3.861l-0.926-1.356L18.751,7.22z"/>
	<path d="M55.305,27.102c-1.28-0.487-2.474-0.475-3.55,0.035c-1.079,0.507-1.927,1.556-2.521,3.119l-2.434,6.397l1.541,0.586
		l2.525-6.643c0.369-0.97,0.873-1.593,1.531-1.941c0.659-0.35,1.424-0.365,2.274-0.042c0.841,0.32,1.408,0.816,1.691,1.477
		c0.282,0.659,0.273,1.396-0.063,2.281l-2.623,6.897l1.537,0.583l2.584-6.796c0.502-1.32,0.528-2.536,0.073-3.614
		C57.421,28.366,56.556,27.578,55.305,27.102"/>
	<path d="M138.815,16.556c0.901-1.032,1.303-2.156,1.199-3.341c-0.103-1.189-0.793-2.347-2.052-3.445l-5.158-4.501l-1.082,1.242
		l5.355,4.672c0.781,0.682,1.189,1.371,1.288,2.109c0.101,0.74-0.152,1.462-0.749,2.148c-0.592,0.678-1.255,1.038-1.972,1.075
		c-0.716,0.036-1.404-0.229-2.117-0.851l-5.561-4.851l-1.082,1.239l5.48,4.781c1.063,0.929,2.194,1.375,3.364,1.321
		C136.896,18.102,137.935,17.565,138.815,16.556"/>
	<path d="M42.581,20.692l-8.33,5.356c-0.172,0.08-0.275-0.006-0.275-0.006c-0.001,0-0.112-0.074-0.087-0.262l2.657-9.54
		l-1.403-1.035l-3.207,11.282c-0.162,0.573,0.025,1.195,0.493,1.563c0.013,0.012,0.027,0.022,0.042,0.033s0.028,0.021,0.043,0.031
		c0.49,0.337,1.141,0.333,1.64,0.008l9.831-6.395L42.581,20.692z"/>
</g>
<rect x="-340.945" y="-387.06" fill="none" width="841.89" height="831.119"/>
</svg>
